<?xml version="1.0" encoding="UTF-8"?>
<svg width="25px" height="6px" viewBox="0 0 25 6" version="1.1" xmlns="http://www.w3.org/2000/svg" xmlns:xlink="http://www.w3.org/1999/xlink">
    <!-- Generator: Sketch 51.2 (57519) - http://www.bohemiancoding.com/sketch -->
    <title>Page 1</title>
    <desc>Created with Sketch.</desc>
    <defs>
        <polygon id="path-1" points="0 0.4815 4.81659091 0.4815 4.81659091 5.249925 0 5.249925"></polygon>
        <polygon id="path-3" points="0.683560606 0.4815 5.50022727 0.4815 5.50022727 5.249925 0.683560606 5.249925"></polygon>
        <polygon id="path-5" points="0.61030303 0.4815 5.42621212 0.4815 5.42621212 5.249925 0.61030303 5.249925"></polygon>
    </defs>
    <g id="desktop" stroke="none" stroke-width="1" fill="none" fill-rule="evenodd">
        <g id="Behaviors" transform="translate(-856.000000, -249.000000)">
            <g id="mobile" transform="translate(-3.000000, -4.000000)">
                <g id="condensed-menu-scroll" transform="translate(530.000000, 158.000000)">
                    <g id="Page-1" transform="translate(329.000000, 95.000000)">
                        <g id="Group-3">
                            <mask id="mask-2" fill="white">
                                <use xlink:href="#path-1"></use>
                            </mask>
                            <g id="Clip-2"></g>
                            <path d="M-7.57575758e-05,2.865675 C-7.57575758e-05,1.548675 1.07871212,0.481425 2.40825758,0.481425 C3.73856061,0.481425 4.81659091,1.548675 4.81659091,2.865675 C4.81659091,4.182675 3.73856061,5.249925 2.40825758,5.249925 C1.07871212,5.249925 -7.57575758e-05,4.182675 -7.57575758e-05,2.865675" id="Fill-1" fill-opacity="0.5" fill="#8C8C8C" mask="url(#mask-2)"></path>
                        </g>
                        <g id="Group-6" transform="translate(9.000000, 0.000000)">
                            <mask id="mask-4" fill="white">
                                <use xlink:href="#path-3"></use>
                            </mask>
                            <g id="Clip-5"></g>
                            <path d="M0.683560606,2.865675 C0.683560606,1.548675 1.76234848,0.481425 3.09265152,0.481425 C4.42295455,0.481425 5.50022727,1.548675 5.50022727,2.865675 C5.50022727,4.182675 4.42295455,5.249925 3.09265152,5.249925 C1.76234848,5.249925 0.683560606,4.182675 0.683560606,2.865675" id="Fill-4" fill-opacity="0.5" fill="#8C8C8C" mask="url(#mask-4)"></path>
                        </g>
                        <g id="Group-9" transform="translate(19.000000, 0.000000)">
                            <mask id="mask-6" fill="white">
                                <use xlink:href="#path-5"></use>
                            </mask>
                            <g id="Clip-8"></g>
                            <path d="M0.61030303,2.865675 C0.61030303,1.548675 1.68833333,0.481425 3.01863636,0.481425 C4.34893939,0.481425 5.42621212,1.548675 5.42621212,2.865675 C5.42621212,4.182675 4.34893939,5.249925 3.01863636,5.249925 C1.68833333,5.249925 0.61030303,4.182675 0.61030303,2.865675" id="Fill-7" fill-opacity="0.5" fill="#8C8C8C" mask="url(#mask-6)"></path>
                        </g>
                    </g>
                </g>
            </g>
        </g>
    </g>
</svg>