<?xml version="1.0" encoding="utf-8"?>
<!-- Generator: Adobe Illustrator 17.1.0, SVG Export Plug-In . SVG Version: 6.00 Build 0)  -->
<!DOCTYPE svg PUBLIC "-//W3C//DTD SVG 1.1//EN" "http://www.w3.org/Graphics/SVG/1.1/DTD/svg11.dtd">
<svg version="1.1" id="Layer_1" xmlns="http://www.w3.org/2000/svg" xmlns:xlink="http://www.w3.org/1999/xlink" x="0px" y="0px"
	 viewBox="0.6 539.9 487.3 120.2" enable-background="new 0.6 539.9 487.3 120.2" xml:space="preserve">
<g>
	<path fill="#EE4C2C" d="M63.1,567.3l-6.6,6.6c10.8,10.8,10.8,28.2,0,38.8c-10.8,10.8-28.2,10.8-38.8,0c-10.8-10.8-10.8-28.2,0-38.8
		l0,0l17.1-17.1l2.4-2.4l0,0v-12.9l-25.8,25.8c-14.4,14.4-14.4,37.6,0,52s37.6,14.4,51.7,0C77.5,604.8,77.5,581.7,63.1,567.3z"/>
	<circle fill="#EE4C2C" cx="50.2" cy="560.9" r="4.8"/>
</g>
<g>
	<g>
		<path d="M129.8,600.3h-11.1v28.5h-8.4v-81.1c0,0,19.2,0,20.4,0c21.3,0,31.5,10.5,31.5,25.2C162.5,591,149.9,600.3,129.8,600.3z
			 M130.7,555.8c-0.9,0-11.7,0-11.7,0v37.3l11.4-0.3c15.3-0.3,23.7-6.3,23.7-18.9C154.1,562.1,145.7,555.8,130.7,555.8z"/>
		<path d="M199.8,628.5l-4.8,12.9c-5.4,14.4-11.1,18.6-19.2,18.6c-4.5,0-7.8-1.2-11.4-2.7l2.4-7.5c2.7,1.5,5.7,2.7,9,2.7
			c4.5,0,7.8-2.4,12.3-13.8l3.9-10.5l-23.1-58.6h8.7l18.6,49l18.3-49h8.4L199.8,628.5z"/>
		<path d="M250.3,555.8v73.3h-8.4v-73.3h-28.5V548h65.2v7.8C278.5,555.8,250.3,555.8,250.3,555.8z"/>
		<path d="M302.3,630.6c-16.5,0-28.5-12.3-28.5-31.2c0-18.9,12.6-31.5,29.4-31.5s28.5,12.3,28.5,31.2
			C331.4,618,318.8,630.6,302.3,630.6z M302.6,575.4c-12.6,0-20.7,9.9-20.7,24c0,14.4,8.4,24.3,21,24.3s20.7-9.9,20.7-24
			C323.6,585,315.2,575.4,302.6,575.4z"/>
		<path d="M351.8,629.1h-8.1v-59.5l8.1-1.8v12.6c3.9-7.5,9.6-12.6,17.4-12.6c3.9,0,7.5,1.2,10.5,2.7l-2.1,7.5
			c-2.7-1.5-5.7-2.7-9-2.7c-6.3,0-12,4.8-16.8,15.3V629.1L351.8,629.1z"/>
		<path d="M411.3,630.6c-18,0-29.1-12.9-29.1-31.2c0-18.6,12.3-31.5,29.1-31.5c7.2,0,13.5,1.8,18.6,5.1l-2.1,7.2
			c-4.5-3-10.2-4.8-16.5-4.8c-12.9,0-20.7,9.6-20.7,23.7c0,14.4,8.4,24,21,24c6,0,12-1.8,16.5-4.8l1.8,7.5
			C424.5,628.8,418.2,630.6,411.3,630.6z"/>
		<path d="M479.5,629.1v-38.5c0-10.5-4.2-15-12.6-15c-6.9,0-13.5,3.6-18.3,8.4v45.1h-8.1v-87.4l8.1-1.8c0,0,0,37.3,0,37.6
			c6.3-6.3,14.1-9.3,20.7-9.3c11.4,0,18.6,7.5,18.6,20.4v40.6H479.5z"/>
	</g>
</g>
</svg>
