<?xml version="1.0" encoding="UTF-8" standalone="no"?>
<!-- Created with Inkscape (http://www.inkscape.org/) -->

<svg
   xmlns:dc="http://purl.org/dc/elements/1.1/"
   xmlns:cc="http://creativecommons.org/ns#"
   xmlns:rdf="http://www.w3.org/1999/02/22-rdf-syntax-ns#"
   xmlns:svg="http://www.w3.org/2000/svg"
   xmlns="http://www.w3.org/2000/svg"
   xmlns:sodipodi="http://sodipodi.sourceforge.net/DTD/sodipodi-0.dtd"
   xmlns:inkscape="http://www.inkscape.org/namespaces/inkscape"
   width="2000"
   height="400"
   id="svg5241"
   version="1.1"
   inkscape:version="0.48.5 r10040"
   sodipodi:docname="logo-wordmark-light.svg"
   inkscape:export-filename="/Users/anthony/dev/readthedocs/guidelines/assets/logo-wordmark-light.png"
   inkscape:export-xdpi="90"
   inkscape:export-ydpi="90">
  <defs
     id="defs5243" />
  <sodipodi:namedview
     id="base"
     pagecolor="#32322a"
     bordercolor="#666666"
     borderopacity="1.0"
     inkscape:pageopacity="1"
     inkscape:pageshadow="2"
     inkscape:zoom="0.70710678"
     inkscape:cx="774.9861"
     inkscape:cy="86.360425"
     inkscape:document-units="px"
     inkscape:current-layer="text5298"
     showgrid="false"
     inkscape:window-width="1366"
     inkscape:window-height="723"
     inkscape:window-x="0"
     inkscape:window-y="26"
     inkscape:window-maximized="0" />
  <metadata
     id="metadata5246">
    <rdf:RDF>
      <cc:Work
         rdf:about="">
        <dc:format>image/svg+xml</dc:format>
        <dc:type
           rdf:resource="http://purl.org/dc/dcmitype/StillImage" />
        <dc:title></dc:title>
      </cc:Work>
    </rdf:RDF>
  </metadata>
  <g
     inkscape:label="Layer 1"
     inkscape:groupmode="layer"
     id="layer1"
     transform="translate(0,-652.3622)">
    <g
       id="g5310"
       transform="translate(-7.2877533,-6.3546821e-5)"
       style="fill:#fafafa;fill-opacity:1">
      <g
         inkscape:export-ydpi="90"
         inkscape:export-xdpi="90"
         inkscape:export-filename="/home/anthony/secure/docs/rtd/assets/rtd-logo-2.png"
         transform="matrix(0.55753644,0,0,0.55753644,62.308135,1038.8762)"
         id="g3990"
         style="fill:#fafafa;fill-opacity:1" />
      <g
         id="g3878"
         transform="matrix(8.4462802,0,0,8.4462802,-93.469267,-7827.1593)"
         style="fill:#fafafa;fill-opacity:1">
        <g
           transform="matrix(0.55753644,0,0,0.55753644,68.308135,1050.1262)"
           id="g3857"
           style="fill:#fafafa;fill-opacity:1">
          <path
             id="path3929-8"
             style="font-size:medium;font-style:normal;font-variant:normal;font-weight:normal;font-stretch:normal;text-indent:0;text-align:start;text-decoration:none;line-height:normal;letter-spacing:normal;word-spacing:normal;text-transform:none;direction:ltr;block-progression:tb;writing-mode:lr-tb;text-anchor:start;baseline-shift:baseline;color:#000000;fill:#fafafa;fill-opacity:1;stroke:none;stroke-width:3.22848844999999995;marker:none;visibility:visible;display:inline;overflow:visible;enable-background:accumulate;font-family:Sans;-inkscape-font-specification:Sans"
             d="M -67.28125,-41.59375 A 1.6144056,1.6144056 0 0 0 -67.5,-38.4375 c 0,0 3.931695,1.301049 10.625,1.84375 5.374689,0.435786 11.46875,-0.375 11.46875,-0.375 a 1.6144056,1.6144056 0 1 0 -0.40625,-3.1875 c 0,0 -5.961605,0.737066 -10.8125,0.34375 C -63.013171,-40.330461 -66.5,-41.5 -66.5,-41.5 a 1.6144056,1.6144056 0 0 0 -0.78125,-0.09375 z m 0,-8 A 1.6144056,1.6144056 0 0 0 -67.5,-46.4375 c 0,0 3.931695,1.301049 10.625,1.84375 5.374689,0.435786 11.46875,-0.375 11.46875,-0.375 a 1.6144056,1.6144056 0 1 0 -0.40625,-3.1875 c 0,0 -5.961605,0.737066 -10.8125,0.34375 C -63.013171,-48.330461 -66.5,-49.5 -66.5,-49.5 a 1.6144056,1.6144056 0 0 0 -0.78125,-0.09375 z m 0,-8 A 1.6144056,1.6144056 0 0 0 -67.5,-54.4375 c 0,0 3.931695,1.301049 10.625,1.84375 5.374689,0.435786 11.46875,-0.375 11.46875,-0.375 a 1.6144056,1.6144056 0 1 0 -0.40625,-3.1875 c 0,0 -5.961605,0.737066 -10.8125,0.34375 C -63.013171,-56.330461 -66.5,-57.5 -66.5,-57.5 a 1.6144056,1.6144056 0 0 0 -0.78125,-0.09375 z m 0,-8 A 1.6144056,1.6144056 0 0 0 -67.5,-62.4375 c 0,0 3.931695,1.301049 10.625,1.84375 5.374689,0.435786 11.46875,-0.375 11.46875,-0.375 a 1.6144056,1.6144056 0 1 0 -0.40625,-3.1875 c 0,0 -5.961605,0.737066 -10.8125,0.34375 C -63.013171,-64.330461 -66.5,-65.5 -66.5,-65.5 a 1.6144056,1.6144056 0 0 0 -0.78125,-0.09375 z m -11.207892,-8.437005 c -8.407221,0.05606 -11.539425,2.645057 -11.539425,2.645057 l 0,62.7837755 c 0,0 3.05858,-2.6415165 12.905554,-2.2381255 9.846974,0.403391 11.878255,3.8552765 23.979914,4.0983855 12.101659,0.243109 15.143679,-1.86026 15.143679,-1.86026 l 0.174399,-64.0045705 c 0,0 -5.446133,1.541392 -16.044742,1.627727 -10.598609,0.08634 -13.146074,-2.696144 -22.875385,-3.022922 -0.608082,-0.02042 -1.183512,-0.0328 -1.743994,-0.02907 z m 7.034109,4.098386 c 0,0 5.094376,1.68402 14.504214,2.150925 7.953019,0.39462 15.928477,-0.784797 15.928477,-0.784797 l 0,56.883263 c 0,0 -4.036665,2.1158549 -14.12635,1.395195 -7.819331,-0.558499 -16.422608,-3.517054 -16.422608,-3.517054 l 0.116267,-56.127532 z m -4.912249,1.482394 a 1.6277275,1.6277275 0 0 1 0,3.255455 c 0,0 -2.634985,0.01353 -4.243719,0.1744 -2.701025,0.270103 -4.534383,1.249862 -4.534383,1.249862 a 1.6251955,1.6251955 0 1 1 -1.511462,-2.87759 c 0,0 2.391605,-1.26521 5.726113,-1.598661 1.926801,-0.192699 4.563451,-0.203466 4.563451,-0.203466 z m -1.569595,8.022372 c 0.899775,-0.02279 1.569595,0 1.569595,0 a 1.625,1.625 0 0 1 0,3.226388 c 0,0 -2.634985,0.01352 -4.243719,0.174399 -2.701025,0.270104 -4.534383,1.249863 -4.534383,1.249863 a 1.6251955,1.6251955 0 0 1 -1.511462,-2.87759 c 0,0 2.391605,-1.26521 5.726113,-1.598661 0.963401,-0.09635 2.094081,-0.151612 2.993856,-0.174399 z m 1.569595,7.993304 a 1.6277275,1.6277275 0 0 1 0,3.255455 c 0,0 -2.634985,-0.01554 -4.243719,0.145333 -2.701025,0.270103 -4.534383,1.249862 -4.534383,1.249862 a 1.6251952,1.6251952 0 0 1 -1.511462,-2.877589 c 0,0 2.391605,-1.265211 5.726113,-1.598661 1.926801,-0.1927 4.563451,-0.1744 4.563451,-0.1744 z"
             inkscape:connector-curvature="0" />
        </g>
        <g
           style="font-size:32px;font-style:normal;font-variant:normal;font-weight:normal;font-stretch:normal;line-height:125%;letter-spacing:-1.99000001px;word-spacing:0px;fill:#fafafa;stroke:none;font-family:Bitter;-inkscape-font-specification:Bitter"
           id="text5298">
          <path
             d="m 63.380232,1038.8522 0,-2.592 1.056,-0.096 c 0.618664,-0.064 0.927997,-0.3627 0.928,-0.896 l 0,-14.88 -1.824,-0.096 0,-2.72 8.736,0 c 2.474654,0 4.373319,0.4587 5.696,1.376 1.322649,0.9173 1.983982,2.4213 1.984,4.512 -1.8e-5,1.4507 -0.384018,2.6453 -1.152,3.584 -0.746683,0.9387 -1.642682,1.6213 -2.688,2.048 0.767985,0.2773 1.375985,0.928 1.824,1.952 l 2.304,5.024 1.824,0.064 0,2.72 -7.904,0 0,-2.592 0.928,-0.096 c 0.490653,-0.064 0.735986,-0.256 0.736,-0.576 -1.4e-5,-0.128 -0.04268,-0.2774 -0.128,-0.448 l -1.504,-3.2 c -0.234679,-0.5334 -0.501345,-0.9067 -0.8,-1.12 -0.277344,-0.2347 -0.682677,-0.352 -1.216,-0.352 l -2.912,0 0,5.568 2.08,0.096 0,2.72 -7.968,0 m 5.888,-11.424 2.784,0 c 2.623987,0 3.935986,-1.1733 3.936,-3.52 -1.4e-5,-1.344 -0.352014,-2.2187 -1.056,-2.624 -0.682679,-0.4053 -1.792011,-0.608 -3.328,-0.608 l -2.336,0 0,6.752"
             style="fill:#fafafa;font-family:Bree Serif;-inkscape-font-specification:Bree Serif Bold"
             id="path3068" />
          <path
             d="m 90.310094,1022.2762 c 1.599989,0 2.869321,0.3947 3.808,1.184 0.938652,0.768 1.407985,1.856 1.408,3.264 -1.5e-5,0.9387 -0.202681,1.7706 -0.608,2.496 -0.405347,0.704 -0.90668,1.2586 -1.504,1.664 -0.597345,0.4053 -1.322678,0.736 -2.176,0.992 -1.429342,0.4266 -3.040007,0.64 -4.832,0.64 0.06399,1.1306 0.415994,2.048 1.056,2.752 0.639993,0.6826 1.621325,1.024 2.944,1.024 1.322656,0 2.645321,-0.4694 3.968,-1.408 l 1.216,2.592 c -0.426681,0.384 -1.152014,0.7786 -2.176,1.184 -1.002678,0.4053 -2.154677,0.608 -3.456,0.608 -2.602673,0 -4.512005,-0.7147 -5.728,-2.144 -1.216002,-1.4507 -1.824002,-3.4347 -1.824,-5.952 -2e-6,-2.5174 0.693331,-4.6293 2.08,-6.336 1.386662,-1.7067 3.327993,-2.56 5.824,-2.56 m -1.472,7.328 c 0.789325,-0.1494 1.514657,-0.4587 2.176,-0.928 0.661322,-0.4907 0.991989,-1.0667 0.992,-1.728 -1.1e-5,-1.3013 -0.640011,-1.952 -1.92,-1.952 -1.194675,0 -2.112007,0.48 -2.752,1.44 -0.640006,0.9387 -0.992006,2.0693 -1.056,3.392 0.93866,-0.021 1.791993,-0.096 2.56,-0.224"
             style="fill:#fafafa;font-family:Bree Serif;-inkscape-font-specification:Bree Serif Bold"
             id="path3070" />
          <path
             d="m 110.8632,1023.3962 0,11.904 c -1e-5,0.3413 0.0533,0.576 0.16,0.704 0.12799,0.128 0.34132,0.2026 0.64,0.224 l 1.024,0.064 0,2.56 -5.088,0 0,-1.856 -0.096,-0.032 c -1.06668,1.536 -2.52801,2.304 -4.384,2.304 -2.176,0 -3.786669,-0.6934 -4.831999,-2.08 -1.045335,-1.3867 -1.568001,-3.2854 -1.568,-5.696 -10e-7,-2.9014 0.703998,-5.1627 2.112,-6.784 1.407999,-1.6213 3.519989,-2.432 6.335999,-2.432 1.81332,0 3.71199,0.3733 5.696,1.12 m -3.712,10.368 0,-8.288 c -0.59734,-0.2773 -1.41868,-0.416 -2.464,-0.416 -1.42934,0 -2.46401,0.576 -3.104,1.728 -0.64,1.152 -0.96,2.6773 -0.96,4.576 0,3.456 1.10933,5.184 3.328,5.184 0.93866,0 1.70666,-0.2774 2.304,-0.832 0.59732,-0.576 0.89599,-1.2267 0.896,-1.952"
             style="fill:#fafafa;font-family:Bree Serif;-inkscape-font-specification:Bree Serif Bold"
             id="path3072" />
          <path
             d="m 121.12069,1022.2762 c 0.91733,0 1.79199,0.128 2.624,0.384 l 0,-3.232 c -1e-5,-0.4693 -0.27734,-0.7253 -0.832,-0.768 l -1.376,-0.096 0,-2.528 5.952,0 0,19.456 c 0.0213,0.4906 0.28799,0.736 0.8,0.736 l 1.12,0.064 0,2.56 -5.184,0 0,-1.888 -0.096,-0.032 c -0.96001,1.5573 -2.41067,2.336 -4.352,2.336 -2.432,0 -4.13867,-0.8107 -5.12,-2.432 -0.896,-1.472 -1.344,-3.2747 -1.344,-5.408 0,-2.7734 0.68267,-4.992 2.048,-6.656 1.38666,-1.664 3.30666,-2.496 5.76,-2.496 m 2.624,11.584 0,-8.288 c -0.76801,-0.3413 -1.57867,-0.512 -2.432,-0.512 -1.40801,0 -2.44267,0.5653 -3.104,1.696 -0.64,1.1307 -0.96,2.5706 -0.96,4.32 0,3.584 1.152,5.376 3.456,5.376 0.87466,0 1.59999,-0.2454 2.176,-0.736 0.57599,-0.512 0.86399,-1.1307 0.864,-1.856"
             style="fill:#fafafa;font-family:Bree Serif;-inkscape-font-specification:Bree Serif Bold"
             id="path3074" />
          <path
             d="m 141.89219,1036.3322 c 0,0 -1.484,0.56 -2.268,0.56 -0.784,0 -1.092,-0.392 -1.092,-1.4 0,-0.448 0.056,-1.036 0.168,-1.764 l 1.204,-7.476 3.864,0 0.336,-2.1 -3.864,0 0.672,-4.088 -2.772,0.56 -0.56,3.528 -2.8,0.28 -0.308,1.82 2.772,0 -1.232,7.756 c -0.112,0.644 -0.168,1.26 -0.168,1.792 0,2.212 0.924,3.332 2.828,3.332 1.568,0 3.668,-1.288 3.668,-1.288 l -0.448,-1.512"
             style="font-size:28px;font-style:italic;font-weight:normal;fill:#fafafa;font-family:Bitter;-inkscape-font-specification:Bitter Italic"
             id="path3076" />
          <path
             d="m 150.57225,1017.2922 -5.124,0.14 -0.252,1.54 2.352,0.56 -3.08,19.32 2.66,0 0.924,-5.04 c 0,0 2.212,-7.7 5.852,-7.7 1.11999,0 1.456,0.812 1.456,1.848 0,0.392 -0.056,0.812 -0.112,1.232 l -1.596,9.66 5.124,-0.28 0.252,-1.54 -2.352,-0.42 1.26,-7.84 c 0.084,-0.588 0.14,-1.148 0.14,-1.652 0,-2.016 -0.81201,-3.388 -3.052,-3.388 -4.256,0 -6.496,5.404 -6.608,5.712 l 2.156,-12.152"
             style="font-size:28px;font-style:italic;font-weight:normal;fill:#fafafa;font-family:Bitter;-inkscape-font-specification:Bitter Italic"
             id="path3078" />
          <path
             d="m 170.69755,1035.6322 c 0,0 -2.548,1.26 -4.592,1.26 -2.1,0 -3.08,-0.924 -3.08,-2.912 0,-0.364 0.028,-0.784 0.084,-1.204 5.796,0 9.828,-2.184 9.828,-5.404 0,-2.212 -1.792,-3.64 -4.62,-3.64 -4.45199,0 -8.092,4.564 -8.092,10.36 0,3.08 1.96,5.04 5.04,5.04 3.304,0 6.272,-2.072 6.272,-2.072 l -0.84,-1.428 m -7.336,-4.816 c 0.728,-2.94 2.772,-4.984 4.816,-4.984 1.428,0 2.1,0.588 2.1,1.82 0,1.848 -2.94,3.164 -6.916,3.164"
             style="font-size:28px;font-style:italic;font-weight:normal;fill:#fafafa;font-family:Bitter;-inkscape-font-specification:Bitter Italic"
             id="path3080" />
          <path
             d="m 177.64305,1038.8522 0,-2.592 1.056,-0.096 c 0.61867,-0.064 0.928,-0.3627 0.928,-0.896 l 0,-14.88 -1.824,-0.096 0,-2.72 8.768,0 c 3.13599,0 5.57865,0.832 7.328,2.496 1.77065,1.664 2.65598,4.128 2.656,7.392 -2e-5,2.0266 -0.26668,3.7973 -0.8,5.312 -0.53335,1.4933 -1.25868,2.6666 -2.176,3.52 -1.83468,1.7066 -4.11734,2.56 -6.848,2.56 l -9.088,0 m 5.888,-18.176 0,15.104 3.264,0 c 1.83466,0 3.26399,-0.6614 4.288,-1.984 1.02399,-1.3227 1.53599,-3.2427 1.536,-5.76 -10e-6,-4.9067 -2.08001,-7.36 -6.24,-7.36 l -2.848,0"
             style="fill:#fafafa;font-family:Bree Serif;-inkscape-font-specification:Bree Serif Bold"
             id="path3082" />
          <path
             d="m 205.62659,1036.5162 c 2.32532,0 3.48798,-1.8774 3.488,-5.632 -2e-5,-1.8987 -0.26668,-3.3387 -0.8,-4.32 -0.51201,-0.9813 -1.38668,-1.472 -2.624,-1.472 -1.21601,0 -2.11201,0.4693 -2.688,1.408 -0.57601,0.9387 -0.86401,2.2186 -0.864,3.84 -1e-5,3.008 0.55466,4.896 1.664,5.664 0.49066,0.3413 1.09866,0.512 1.824,0.512 m -7.36,-5.728 c 0,-1.5787 0.23466,-2.944 0.704,-4.096 0.46933,-1.1733 1.09866,-2.0693 1.888,-2.688 1.51466,-1.152 3.18932,-1.728 5.024,-1.728 1.27999,0 2.35732,0.2133 3.232,0.64 0.89598,0.4053 1.58932,0.8853 2.08,1.44 0.51198,0.5333 0.93865,1.3227 1.28,2.368 0.36265,1.024 0.54398,2.24 0.544,3.648 -2e-5,2.944 -0.71469,5.1733 -2.144,6.688 -1.42935,1.5146 -3.26401,2.272 -5.504,2.272 -2.21868,0 -3.95734,-0.7147 -5.216,-2.144 -1.25867,-1.4507 -1.888,-3.584 -1.888,-6.4"
             style="fill:#fafafa;font-family:Bree Serif;-inkscape-font-specification:Bree Serif Bold"
             id="path3084" />
          <path
             d="m 218.42846,1030.6282 c -1e-5,1.8133 0.34133,3.2213 1.024,4.224 0.68266,1.0026 1.66399,1.504 2.944,1.504 1.30132,0 2.58132,-0.4587 3.84,-1.376 l 1.376,2.464 c -1.51468,1.2373 -3.41335,1.856 -5.696,1.856 -2.28268,0 -4.08534,-0.7147 -5.408,-2.144 -1.30134,-1.4507 -1.952,-3.584 -1.952,-6.4 0,-2.816 0.74666,-4.928 2.24,-6.336 1.51466,-1.4293 3.21066,-2.144 5.088,-2.144 1.89865,0 3.65865,0.4373 5.28,1.312 l 0,4.16 -2.944,0.224 0,-1.536 c -1e-5,-0.576 -0.21335,-0.928 -0.64,-1.056 -0.40535,-0.1493 -0.83201,-0.224 -1.28,-0.224 -2.58134,0 -3.87201,1.824 -3.872,5.472"
             style="fill:#fafafa;font-family:Bree Serif;-inkscape-font-specification:Bree Serif Bold"
             id="path3086" />
          <path
             d="m 236.74521,1025.1882 c -0.51201,-0.192 -1.13068,-0.288 -1.856,-0.288 -0.72534,0 -1.31201,0.1707 -1.76,0.512 -0.42668,0.32 -0.64001,0.7253 -0.64,1.216 -1e-5,0.4693 0.0747,0.8427 0.224,1.12 0.17066,0.256 0.42666,0.48 0.768,0.672 0.53332,0.2773 1.17332,0.5226 1.92,0.736 0.74665,0.192 1.30132,0.352 1.664,0.48 0.36265,0.1066 0.81065,0.2986 1.344,0.576 0.55465,0.2773 0.97065,0.576 1.248,0.896 0.74665,0.7893 1.11998,1.8026 1.12,3.04 -2e-5,1.6 -0.58668,2.8586 -1.76,3.776 -1.15201,0.896 -2.62401,1.344 -4.416,1.344 -2.60268,0 -4.56534,-0.3307 -5.888,-0.992 l 0,-4.448 2.88,-0.224 0,1.536 c -1e-5,0.9386 0.89599,1.408 2.688,1.408 1.79199,0 2.68799,-0.6507 2.688,-1.952 -1e-5,-0.4694 -0.16001,-0.8534 -0.48,-1.152 -0.29868,-0.2987 -0.59735,-0.5014 -0.896,-0.608 -0.29868,-0.1067 -0.66134,-0.2134 -1.088,-0.32 -0.40534,-0.1067 -0.81068,-0.2134 -1.216,-0.32 -0.38401,-0.1067 -0.81068,-0.2454 -1.28,-0.416 -0.44801,-0.192 -0.94934,-0.4587 -1.504,-0.8 -1.08801,-0.704 -1.63201,-1.8774 -1.632,-3.52 -1e-5,-1.664 0.58666,-2.944 1.76,-3.84 1.17333,-0.896 2.64532,-1.344 4.416,-1.344 1.79199,0 3.56265,0.4267 5.312,1.28 l 0,3.84 -2.88,0.224 0,-1.344 c -1e-5,-0.5333 -0.24535,-0.896 -0.736,-1.088"
             style="fill:#fafafa;font-family:Bree Serif;-inkscape-font-specification:Bree Serif Bold"
             id="path3088" />
        </g>
      </g>
    </g>
  </g>
</svg>
