<?xml version="1.0" encoding="utf-8"?>
<!-- Generator: Adobe Illustrator 21.0.0, SVG Export Plug-In . SVG Version: 6.00 Build 0)  -->
<svg version="1.1" id="Layer_1" xmlns="http://www.w3.org/2000/svg" xmlns:xlink="http://www.w3.org/1999/xlink" x="0px" y="0px"
	 viewBox="0 0 199.7 40.2" style="enable-background:new 0 0 199.7 40.2;" xml:space="preserve">
<style type="text/css">
	.st0{fill:#F05732;}
	.st1{fill:#9E529F;}
	.st2{fill:#333333;}
</style>
<path class="st0" d="M102.7,12.2c-1.3-1-1.8,3.9-4.4,3.9c-3,0-4-13-6.3-13c-0.7,0-0.8-0.4-7.9,21.3c-2.9,9,4.4,15.8,11.8,15.8
	c4.6,0,12.3-3,12.3-12.6C108.2,20.5,104.7,13.7,102.7,12.2z M95.8,35.3c-3.7,0-6.7-3.1-6.7-7c0-3.9,3-7,6.7-7s6.7,3.1,6.7,7
	C102.5,32.1,99.5,35.3,95.8,35.3z"/>
<path class="st1" d="M99.8,0c-0.5,0-1.8,2.5-1.8,3.6c0,1.5,1,2,1.8,2c0.8,0,1.8-0.5,1.8-2C101.5,2.5,100.2,0,99.8,0z"/>
<path class="st2" d="M0,39.5V14.9h11.5c5.3,0,8.3,3.6,8.3,7.9c0,4.3-3,7.9-8.3,7.9H5.2v8.8H0z M14.4,22.8c0-2.1-1.6-3.3-3.7-3.3H5.2
	v6.6h5.5C12.8,26.1,14.4,24.8,14.4,22.8z"/>
<path class="st2" d="M35.2,39.5V29.4l-9.4-14.5h6l6.1,9.8l6.1-9.8h5.9l-9.4,14.5v10.1H35.2z"/>
<path class="st2" d="M63.3,39.5v-20h-7.2v-4.6h19.6v4.6h-7.2v20H63.3z"/>
<path class="st2" d="M131.4,39.5l-4.8-8.7h-3.8v8.7h-5.2V14.9H129c5.1,0,8.3,3.4,8.3,7.9c0,4.3-2.8,6.7-5.4,7.3l5.6,9.4H131.4z
	 M131.9,22.8c0-2-1.6-3.3-3.7-3.3h-5.5v6.6h5.5C130.3,26.1,131.9,24.9,131.9,22.8z"/>
<path class="st2" d="M145.6,27.2c0-7.6,5.7-12.7,13.1-12.7c5.4,0,8.5,2.9,10.3,6l-4.5,2.2c-1-2-3.2-3.6-5.8-3.6
	c-4.5,0-7.7,3.4-7.7,8.1c0,4.6,3.2,8.1,7.7,8.1c2.5,0,4.7-1.6,5.8-3.6l4.5,2.2c-1.7,3.1-4.9,6-10.3,6
	C151.3,39.9,145.6,34.7,145.6,27.2z"/>
<path class="st2" d="M194.5,39.5V29.1h-11.6v10.4h-5.2V14.9h5.2v9.7h11.6v-9.7h5.3v24.6H194.5z"/>
</svg>
