<?xml version="1.0" encoding="utf-8"?>
<!-- Generator: Adobe Illustrator 23.0.1, SVG Export Plug-In . SVG Version: 6.00 Build 0)  -->
<svg version="1.1" id="Layer_1" xmlns="http://www.w3.org/2000/svg" xmlns:xlink="http://www.w3.org/1999/xlink" x="0px" y="0px"
	 viewBox="0 0 105 105" style="enable-background:new 0 0 105 105;" xml:space="preserve">
<style type="text/css">
	.st0{fill-rule:evenodd;clip-rule:evenodd;fill:#333333;}
</style>
<path class="st0" d="M52.54,2.44c-27.61,0-50,22.39-50,50c0,22.09,14.33,40.83,34.2,47.44c2.5,0.46,3.41-1.09,3.41-2.41
	c0-1.19-0.04-4.33-0.07-8.5c-13.91,3.02-16.84-6.7-16.84-6.7c-2.27-5.78-5.55-7.31-5.55-7.31c-4.54-3.1,0.34-3.04,0.34-3.04
	c5.02,0.35,7.66,5.15,7.66,5.15c4.46,7.64,11.7,5.43,14.55,4.15c0.45-3.23,1.75-5.43,3.17-6.68c-11.1-1.26-22.78-5.55-22.78-24.71
	c0-5.46,1.95-9.92,5.15-13.42c-0.51-1.26-2.23-6.35,0.49-13.23c0,0,4.2-1.34,13.75,5.13c3.99-1.11,8.27-1.66,12.52-1.68
	c4.25,0.02,8.52,0.57,12.52,1.68c9.55-6.47,13.74-5.13,13.74-5.13c2.73,6.88,1.01,11.97,0.5,13.23c3.2,3.5,5.14,7.96,5.14,13.42
	c0,19.21-11.69,23.43-22.83,24.67c1.8,1.54,3.39,4.6,3.39,9.26c0,6.68-0.06,12.08-0.06,13.72c0,1.34,0.9,2.89,3.44,2.4
	c19.85-6.62,34.16-25.35,34.16-47.44C102.54,24.83,80.15,2.44,52.54,2.44z"/>
</svg>
