<svg width="389.1999877929687px" height="131.99999389648437px" xmlns="http://www.w3.org/2000/svg" viewBox="55.400006103515636 9.000003051757815 389.1999877929687 131.99999389648437" style="background: rgba(0, 0, 0, 0) none repeat scroll 0% 0%;" preserveAspectRatio="xMidYMid"><defs><filter id="editing-hole" x="-100%" y="-100%" width="300%" height="300%"><feFlood flood-color="none" result="black"></feFlood><feMorphology operator="dilate" radius="2" in="SourceGraphic" result="erode"></feMorphology><feGaussianBlur in="erode" stdDeviation="4" result="blur"></feGaussianBlur><feOffset in="blur" dx="2" dy="2" result="offset"></feOffset><feComposite operator="atop" in="offset" in2="black" result="merge"></feComposite><feComposite operator="in" in="merge" in2="SourceGraphic" result="inner-shadow"></feComposite></filter></defs><g filter="url(#editing-hole)"><g transform="translate(115.65498876571655, 99.59499931335449)"><path d="M17.50-44.25L17.50-44.25L17.50-44.25Q14.25-44.25 13.05-42.38L13.05-42.38L13.05-42.38Q11.84-40.50 11.84-35.88L11.84-35.88L11.84-34.28L20.09-34.28L20.09-30.41L11.84-30.41L11.84 0L6.63 0L6.63-30.41L1.06-30.41L1.50-33.84L6.63-34.28L6.63-35.81L6.63-35.81Q6.69-42.44 9.11-45.42L9.11-45.42L9.11-45.42Q11.53-48.41 16.94-48.41L16.94-48.41L16.94-48.41Q19.03-48.41 22.06-47.94L22.06-47.94L21.72-43.84L21.72-43.84Q18.94-44.25 17.50-44.25ZM24.19-11.44L24.19-11.44L24.19-34.28L29.44-34.28L29.44-11.38L29.44-11.38Q29.44-9.13 30.08-7.56L30.08-7.56L30.08-7.56Q30.72-6 31.92-5.14L31.92-5.14L31.92-5.14Q33.13-4.28 34.64-3.91L34.64-3.91L34.64-3.91Q36.16-3.53 38.13-3.53L38.13-3.53L38.13-3.53Q42.19-3.53 44.45-5.31L44.45-5.31L44.45-5.31Q46.72-7.09 46.72-11.38L46.72-11.38L46.72-34.28L51.97-34.28L51.97-11.44L51.97-11.44Q51.97-8.81 51.22-6.72L51.22-6.72L51.22-6.72Q50.47-4.63 49.20-3.23L49.20-3.23L49.20-3.23Q47.94-1.84 46.16-0.94L46.16-0.94L46.16-0.94Q44.38-0.03 42.39 0.38L42.39 0.38L42.39 0.38Q40.41 0.78 38.13 0.78L38.13 0.78L38.13 0.78Q35.88 0.78 33.88 0.38L33.88 0.38L33.88 0.38Q31.88-0.03 30.08-0.95L30.08-0.95L30.08-0.95Q28.28-1.88 26.98-3.27L26.98-3.27L26.98-3.27Q25.69-4.66 24.94-6.75L24.94-6.75L24.94-6.75Q24.19-8.84 24.19-11.44ZM65.03 0L59.75 0L59.75-34.28L64.13-34.28L64.78-29.38L64.78-29.38Q66.81-31.91 69.86-33.45L69.86-33.45L69.86-33.45Q72.91-35 76.44-35L76.44-35L76.44-35Q82.38-35 85.22-31.67L85.22-31.67L85.22-31.67Q88.06-28.34 88.06-21.44L88.06-21.44L88.06 0L82.84 0L82.84 0Q82.84-20.63 82.81-22.09L82.81-22.09L82.81-22.09Q82.69-26.47 81.05-28.50L81.05-28.50L81.05-28.50Q79.41-30.53 75.56-30.53L75.56-30.53L75.56-30.53Q71.53-30.53 68.84-28.59L68.84-28.59L68.84-28.59Q66.16-26.66 65.34-23.56L65.34-23.56L65.34-23.56Q65.03-21.47 65.03-18.75L65.03-18.75L65.03 0ZM111.25 0.72L111.25 0.72L111.25 0.72Q103.69 0.72 99.42-4.19L99.42-4.19L99.42-4.19Q95.16-9.09 95.16-17.03L95.16-17.03L95.16-17.03Q95.19-25.03 99.52-30.02L99.52-30.02L99.52-30.02Q103.84-35 111.38-35L111.38-35L111.38-35Q114.03-35 116.52-34.34L116.52-34.34L116.52-34.34Q119-33.69 120.44-32.63L120.44-32.63L119-28.56L119-28.56Q115.34-30.53 111.28-30.53L111.28-30.53L111.28-30.53Q106.31-30.53 103.42-26.91L103.42-26.91L103.42-26.91Q100.53-23.28 100.53-17L100.53-17L100.53-17Q100.53-10.88 103.39-7.30L103.39-7.30L103.39-7.30Q106.25-3.72 111.31-3.72L111.31-3.72L111.31-3.72Q115.34-3.72 119.56-5.91L119.56-5.91L120.22-1.75L120.22-1.75Q116.81 0.72 111.25 0.72ZM137.94 0.63L137.94 0.63L137.94 0.63Q132.88 0.63 130.75-1.84L130.75-1.84L130.75-1.84Q128.63-4.31 128.50-9.81L128.50-9.81L128.50-30.41L123.41-30.41L123.63-33.84L128.47-34.28L130.25-42.13L133.69-42.25L133.69-34.28L143.22-34.28L143.22-30.41L133.69-30.41L133.69-10.75L133.69-10.75Q133.69-6.84 134.88-5.25L134.88-5.25L134.88-5.25Q136.06-3.66 138.94-3.66L138.94-3.66L138.94-3.66Q139.97-3.66 143.41-4.16L143.41-4.16L143.63-0.03L143.63-0.03Q139.91 0.63 137.94 0.63ZM152.66-17.06L152.66-17.06L152.66-17.06Q152.66-10.97 155.36-7.30L155.36-7.30L155.36-7.30Q158.06-3.63 163.25-3.63L163.25-3.63L163.25-3.63Q168.38-3.63 170.98-7.28L170.98-7.28L170.98-7.28Q173.59-10.94 173.59-17.13L173.59-17.13L173.59-17.13Q173.59-23.41 171.02-27.02L171.02-27.02L171.02-27.02Q168.44-30.63 163.16-30.63L163.16-30.63L163.16-30.63Q158.03-30.63 155.34-26.94L155.34-26.94L155.34-26.94Q152.66-23.25 152.66-17.06ZM179-17.16L179-17.16L179-17.16Q179-9.19 174.75-4.23L174.75-4.23L174.75-4.23Q170.50 0.72 163 0.72L163 0.72L163 0.72Q155.78 0.72 151.52-4.28L151.52-4.28L151.52-4.28Q147.25-9.28 147.25-17.13L147.25-17.13L147.25-17.13Q147.25-25.13 151.53-30.06L151.53-30.06L151.53-30.06Q155.81-35 163.28-35L163.28-35L163.28-35Q170.63-35 174.81-30.05L174.81-30.05L174.81-30.05Q179-25.09 179-17.16ZM201.75-34.59L201.75-34.59L201.75-34.59Q203.16-34.59 204.31-34.41L204.31-34.41L204.13-29.59L204.13-29.59Q202.69-29.84 201.63-29.84L201.63-29.84L201.63-29.84Q197.25-29.84 194.52-26.80L194.52-26.80L194.52-26.80Q191.78-23.75 191.78-19.25L191.78-19.25L191.78 0L186.56 0L186.56 0Q186.53-31.56 186.53-34.28L186.53-34.28L190.88-34.28L191.38-28.13L191.38-28.13Q193.16-31.03 195.91-32.81L195.91-32.81L195.91-32.81Q198.66-34.59 201.75-34.59ZM223.56 0.72L223.56 0.72L223.56 0.72Q216 0.72 211.73-4.19L211.73-4.19L211.73-4.19Q207.47-9.09 207.47-17.03L207.47-17.03L207.47-17.03Q207.50-25.03 211.83-30.02L211.83-30.02L211.83-30.02Q216.16-35 223.69-35L223.69-35L223.69-35Q226.34-35 228.83-34.34L228.83-34.34L228.83-34.34Q231.31-33.69 232.75-32.63L232.75-32.63L231.31-28.56L231.31-28.56Q227.66-30.53 223.59-30.53L223.59-30.53L223.59-30.53Q218.63-30.53 215.73-26.91L215.73-26.91L215.73-26.91Q212.84-23.28 212.84-17L212.84-17L212.84-17Q212.84-10.88 215.70-7.30L215.70-7.30L215.70-7.30Q218.56-3.72 223.63-3.72L223.63-3.72L223.63-3.72Q227.66-3.72 231.88-5.91L231.88-5.91L232.53-1.75L232.53-1.75Q229.13 0.72 223.56 0.72ZM267.63 0L262.41 0L262.41-20.72L262.41-20.72Q262.41-25.88 260.77-28.22L260.77-28.22L260.77-28.22Q259.13-30.56 255.03-30.56L255.03-30.56L255.03-30.56Q251.09-30.56 248.39-28.59L248.39-28.59L248.39-28.59Q245.69-26.63 244.88-23.50L244.88-23.50L244.88-23.50Q244.59-21.16 244.59-18.28L244.59-18.28L244.59 0L239.38 0L239.38-47.59L244.59-47.91L244.59-33.97L244.59-33.97Q244.59-32.19 244.47-29.56L244.47-29.56L244.47-29.56Q248.88-35 256.16-35L256.16-35L256.16-35Q267.63-35 267.63-21.53L267.63-21.53L267.63 0Z" fill="#000000"></path></g></g><style>text {
  font-size: 64px;
  font-family: Arial Black;
  dominant-baseline: central;
  text-anchor: middle;
}</style></svg>
