<?xml version="1.0" encoding="UTF-8"?>
<svg id="Layer_1" data-name="Layer 1" xmlns="http://www.w3.org/2000/svg" viewBox="0 0 576.85 513.1">
  <defs>
    <style>
      .cls-1 {
        fill: #48566b;
        stroke: #48566b;
        stroke-miterlimit: 10;
      }
    </style>
  </defs>
  <path class="cls-1" d="M576.2,256c0,18-15,32.1-32,32.1h-32l.7,160.2c0,2.7-.2,5.4-.5,8.1v16.2c0,22.1-17.9,40-40,40h-16c-1.1,0-2.2,0-3.3-.1-1.4.1-2.8.1-4.2.1l-32.5-.1h-24c-22.1,0-40-17.9-40-40v-88c0-17.7-14.3-32-32-32h-64c-17.7,0-32,14.3-32,32v88c0,22.1-17.9,40-40,40h-55.9c-1.5,0-3-.1-4.5-.2-1.2.1-2.4.2-3.6.2h-16c-22.1,0-40-17.9-40-40v-112c0-.9,0-1.9.1-2.8v-69.7h-32c-18,0-32-14-32-32.1,0-9,3-17,10-24L266.8,8.5c7-7,15-8,22-8s15,2,21,7l255.4,224.5c8,7,12,15,11,24Z"/>
</svg>